<?xml version="1.0" encoding="UTF-8"?>
<svg id="Dimensions" xmlns="http://www.w3.org/2000/svg" viewBox="0 0 4535.43 2551.18">
  <defs>
    <style>
      .cls-1 {
        fill: #5f89bb;
      }

      .cls-2 {
        fill: #fff;
      }

      .cls-3 {
        fill: #fbb92a;
      }

      .cls-4 {
        fill: #b8d1eb;
      }
    </style>
  </defs>
  <rect class="cls-2" x="-55.28" y="-103.91" width="4667" height="2714.5"/>
  <g>
    <path class="cls-1" d="M5047.27,1462.09c-61.26-.8-122.55-1.17-183.8.86l-22.97.63c-3.83.12-7.66.17-11.48.35l-11.48.52-45.91,2.1c-3.82.19-7.65.31-11.47.57l-11.46.73-22.93,1.46c-15.28,1-30.58,1.83-45.84,3.18l-45.79,3.7c-3.82.28-7.63.66-11.44,1.04l-11.43,1.11-22.86,2.23-22.86,2.23-22.82,2.57-22.81,2.58-11.41,1.29c-3.8.43-7.61.84-11.4,1.35-60.76,7.45-121.31,16.11-181.7,25.57-60.34,9.67-120.5,20.14-180.5,31.12-59.98,11.05-119.79,22.53-179.54,34.04-59.74,11.53-119.4,22.98-179.08,34.03-59.67,11.1-119.39,21.46-179.17,31.17l-44.86,7.09-44.9,6.62c-7.49,1.08-14.96,2.24-22.46,3.25l-22.48,3.02-22.48,3.02c-7.49,1.01-14.99,2.04-22.49,2.9l-45.02,5.42c-3.75.44-7.5.93-11.26,1.33l-11.27,1.19-22.54,2.38-22.54,2.38-5.64.6-5.64.51-11.28,1.01-45.14,4.06c-3.76.37-7.53.61-11.29.89l-11.3.83-22.6,1.66-22.6,1.66c-7.53.53-15.08.88-22.61,1.32l-45.24,2.54c-3.77.24-7.54.34-11.31.5l-11.32.44-22.64.87c-60.35,2.37-120.59,2.98-180.91,1.83-120.58-2.46-241.03-11.85-360.72-27.51-119.71-15.63-238.64-37.51-356.59-64.19-117.97-26.66-234.95-58.09-351.25-92.31-116.32-34.2-231.98-71.18-347.74-108.49-57.88-18.65-115.8-37.37-173.88-55.81-58.07-18.44-116.3-36.59-174.83-54.01-58.52-17.42-117.34-34.13-176.55-49.66l-11.1-2.93-11.13-2.83-22.26-5.65c-7.41-1.92-14.87-3.67-22.31-5.49l-22.33-5.43-22.4-5.2-11.2-2.59c-3.73-.88-7.47-1.73-11.22-2.53l-22.47-4.93-11.24-2.46-11.27-2.32c-60.08-12.53-120.63-23.31-181.6-31.77-60.98-8.36-122.4-14.28-184.04-17.33l-11.56-.61-11.57-.37-23.14-.75c-3.86-.16-7.72-.17-11.58-.22l-11.58-.13-11.58-.13c-3.86-.01-7.72-.15-11.58-.05l-46.33.69c-3.86,0-7.72.24-11.58.4l-11.57.51-23.15,1.03c-61.7,3.36-123.25,9.91-184.29,19.81-61.03,9.89-121.54,23.13-181.14,39.68-3.72,1.04-7.48,1.97-11.18,3.09l-11.12,3.31-22.23,6.62c-3.72,1.06-7.38,2.32-11.06,3.5l-11.03,3.58-11.03,3.58c-3.67,1.21-7.37,2.34-11.01,3.66l-21.89,7.68-10.94,3.85-10.86,4.09-21.71,8.18c-7.2,2.81-14.36,5.75-21.54,8.62l-10.76,4.33c-3.6,1.42-7.12,3.01-10.69,4.51l-21.34,9.12c-7.08,3.12-14.11,6.35-21.16,9.52l-10.57,4.79-10.48,4.99-10.48,4.99c-3.49,1.67-7,3.3-10.44,5.06l-20.76,10.37c-13.75,7.1-27.5,14.21-41.04,21.69-27.16,14.83-53.9,30.46-80.14,46.8-13.14,8.14-26.11,16.52-38.96,24.91l-19.06,12.51-4.64,3.01c-1.54,1-3.12,2.04-4.53,2.89l-4.34,2.71c-1.09.59-2.15,1.19-3.21,1.82l-24.73-49.15c-.14-.03-.26.03-.32.12l3.35-2.1.84-.52c.25-.15.58-.36.96-.61l2.17-1.41,4.34-2.81,19.05-12.5c13.07-8.53,26.44-17.17,39.99-25.57,27.08-16.87,54.75-33.05,82.84-48.38,14.01-7.74,28.23-15.09,42.45-22.44l21.48-10.73c3.57-1.82,7.19-3.5,10.8-5.23l10.84-5.16,10.84-5.16,10.93-4.95c7.29-3.28,14.57-6.62,21.88-9.85l22.06-9.43c3.69-1.55,7.34-3.19,11.05-4.66l11.13-4.48c7.42-2.97,14.82-6,22.27-8.91l22.44-8.46,11.22-4.22,11.31-3.98,22.63-7.94c3.76-1.36,7.58-2.53,11.38-3.78l11.4-3.7,11.4-3.7c3.81-1.21,7.59-2.51,11.43-3.62l22.97-6.85,11.49-3.42c3.82-1.16,7.7-2.12,11.55-3.2,61.58-17.1,124.08-30.78,187.09-40.99,63.01-10.22,126.53-16.97,190.15-20.44l23.87-1.06,11.93-.53c3.98-.16,7.96-.39,11.93-.41l47.74-.71c3.98-.1,7.96.03,11.94.05l11.94.13,11.94.13c3.98.05,7.96.06,11.93.22l23.83.77,11.91.39,11.89.62c63.42,3.14,126.45,9.23,188.87,17.78,62.39,8.66,124.19,19.67,185.34,32.42l11.48,2.37,11.43,2.5,22.85,5.01c3.81.82,7.61,1.69,11.4,2.57l11.38,2.63,22.75,5.28,22.65,5.51c7.54,1.85,15.12,3.63,22.62,5.57l22.56,5.73,11.27,2.87,11.23,2.96c59.94,15.72,119.34,32.6,178.31,50.15,58.98,17.55,117.51,35.8,175.77,54.3,58.26,18.5,116.25,37.25,174.1,55.89,115.7,37.29,230.88,74.11,346.39,108.07,115.49,33.98,231.32,65.09,347.86,91.43,116.53,26.35,233.76,47.91,351.59,63.3,117.81,15.41,236.2,24.63,354.66,27.05l44.42.52c3.7.07,7.4.04,11.1.02l11.1-.05,22.21-.1,11.1-.06,11.1-.24,22.2-.47,11.1-.23,5.55-.12,5.58-.22,22.32-.86,22.32-.86,11.16-.43c3.72-.15,7.44-.25,11.16-.49l44.6-2.51c7.43-.44,14.87-.78,22.3-1.3l22.28-1.64,22.28-1.64,11.14-.82c3.71-.28,7.43-.52,11.14-.88l44.53-4.01,11.13-1,5.57-.51,5.56-.59,22.25-2.35,22.25-2.35,11.13-1.17c3.71-.39,7.41-.88,11.12-1.31l44.47-5.36c7.41-.85,14.82-1.87,22.23-2.87l22.23-2.98,22.23-2.98c7.41-1,14.81-2.15,22.22-3.22l44.44-6.55,44.44-7.03c59.27-9.62,118.53-19.9,177.93-30.95,59.41-10.99,118.9-22.41,178.66-33.95,59.77-11.51,119.73-23.02,180.01-34.12,60.32-11.03,120.91-21.59,181.81-31.34,60.96-9.55,122.19-18.31,183.7-25.85,3.83-.51,7.69-.93,11.54-1.37l11.55-1.31,23.11-2.61,23.11-2.6,23.17-2.26,23.17-2.25,11.58-1.13c3.86-.38,7.72-.76,11.59-1.05l46.43-3.76c15.47-1.37,30.99-2.21,46.49-3.23l23.26-1.48,11.63-.74c3.88-.26,7.76-.38,11.64-.58l46.58-2.13,11.64-.53c3.88-.19,7.77-.24,11.65-.36l23.31-.64c62.15-2.06,124.32-1.69,186.46-.87l-1.11,55.01Z"/>
    <path class="cls-3" d="M5046.16,1517.1c-60.38-.79-120.79-1.16-181.15.85l-22.64.62c-3.77.12-7.55.16-11.32.35l-11.31.52-45.24,2.07c-3.77.19-7.54.3-11.31.56l-11.3.72-22.6,1.44c-15.07.98-30.14,1.8-45.19,3.14l-45.16,3.65c-3.76.28-7.52.65-11.28,1.02l-11.28,1.1-22.55,2.19-22.55,2.19-22.52,2.53-22.52,2.54-11.26,1.27c-3.75.42-7.51.83-11.25,1.33-60.01,7.36-119.9,15.93-179.71,25.29-59.79,9.58-119.5,19.98-179.18,30.89-59.68,10.99-119.34,22.45-179.06,33.95-59.72,11.53-119.55,23.01-179.5,34.1-59.94,11.15-120.11,21.59-180.41,31.38l-45.27,7.16-45.37,6.69c-7.57,1.09-15.12,2.26-22.69,3.29l-22.74,3.05-22.74,3.05c-7.58,1.02-15.15,2.06-22.76,2.93l-45.57,5.49c-3.8.45-7.59.94-11.4,1.35l-11.42,1.21-22.83,2.41-22.83,2.41-5.71.6-5.72.52-11.44,1.03-45.74,4.11c-3.81.37-7.63.62-11.45.91l-11.45.84-22.91,1.68-22.91,1.68c-7.64.54-15.29.89-22.93,1.34l-45.87,2.58c-3.82.25-7.65.35-11.47.51l-11.48.44-22.95.88c-61.21,2.41-122.68,3.03-184.01,1.86-122.7-2.5-245.2-12.06-366.77-27.96-121.58-15.87-242.22-38.08-361.59-65.08-119.39-26.98-237.52-58.74-354.64-93.19-117.13-34.44-233.27-71.57-349.09-108.9-57.92-18.66-115.76-37.36-173.65-55.74-57.88-18.38-115.81-36.44-173.89-53.72-58.08-17.29-116.31-33.83-174.79-49.17l-10.96-2.89-10.98-2.79-21.96-5.58c-7.31-1.9-14.66-3.61-21.99-5.42l-22-5.35-22.05-5.11-11.02-2.55c-3.67-.86-7.35-1.7-11.03-2.49l-22.09-4.84-11.05-2.42-11.07-2.28c-59.01-12.3-118.31-22.86-177.86-31.12-59.55-8.16-119.35-13.92-179.22-16.89l-11.22-.59-11.23-.36-22.46-.72c-3.74-.16-7.49-.17-11.23-.21l-11.23-.12-11.23-.12c-3.74-.01-7.49-.15-11.23-.05l-44.91.67c-3.74,0-7.48.23-11.22.38l-11.21.5-22.43.99c-59.78,3.26-119.37,9.6-178.42,19.18-59.06,9.57-117.57,22.38-175.19,38.38-3.6,1-7.23,1.9-10.81,2.99l-10.75,3.2-21.49,6.4c-3.6,1.03-7.13,2.25-10.69,3.38l-10.66,3.46-10.66,3.46c-3.55,1.17-7.13,2.26-10.64,3.54l-21.16,7.42-10.58,3.71-10.49,3.95-20.98,7.9c-6.96,2.72-13.87,5.56-20.81,8.33l-10.4,4.18c-3.47,1.38-6.88,2.91-10.33,4.36l-20.62,8.81c-6.84,3.02-13.62,6.14-20.44,9.2l-10.21,4.62-10.12,4.82-10.12,4.82c-3.37,1.61-6.76,3.18-10.09,4.88l-20.05,10.02c-13.27,6.86-26.55,13.71-39.63,20.94-26.23,14.32-52.03,29.4-77.43,45.22-12.72,7.88-25.29,16-37.92,24.25l-19.08,12.52-4.93,3.2c-1.65,1.07-3.25,2.12-5.08,3.25l-5.34,3.32c-2.23,1.27-4.48,2.53-6.74,3.76l-24.73-49.15c1.06-.63,2.12-1.23,3.21-1.82l4.34-2.71c1.41-.86,2.98-1.89,4.53-2.89l4.64-3.01,19.06-12.51c12.84-8.39,25.82-16.77,38.96-24.91,26.24-16.34,52.97-31.97,80.14-46.8,13.55-7.48,27.3-14.58,41.04-21.69l20.76-10.37c3.45-1.76,6.95-3.39,10.44-5.06l10.48-4.99,10.48-4.99,10.57-4.79c7.06-3.17,14.08-6.4,21.16-9.52l21.34-9.12c3.57-1.5,7.09-3.09,10.69-4.51l10.76-4.33c7.18-2.87,14.34-5.81,21.54-8.62l21.71-8.18,10.86-4.09,10.94-3.85,21.89-7.68c3.64-1.32,7.33-2.45,11.01-3.66l11.03-3.58,11.03-3.58c3.68-1.18,7.34-2.44,11.06-3.5l22.23-6.62,11.12-3.31c3.7-1.13,7.45-2.05,11.18-3.09,59.6-16.55,120.11-29.79,181.14-39.68,61.03-9.9,122.59-16.45,184.29-19.81l23.15-1.03,11.57-.51c3.86-.16,7.72-.39,11.58-.4l46.33-.69c3.86-.1,7.72.03,11.58.05l11.58.13,11.58.13c3.86.04,7.72.06,11.58.22l23.14.75,11.57.37,11.56.61c61.64,3.05,123.06,8.98,184.04,17.33,60.97,8.46,121.51,19.25,181.6,31.77l11.27,2.32,11.24,2.46,22.47,4.93c3.75.81,7.49,1.66,11.22,2.53l11.2,2.59,22.4,5.2,22.33,5.43c7.44,1.83,14.9,3.57,22.31,5.49l22.26,5.65,11.13,2.83,11.1,2.93c59.21,15.53,118.02,32.24,176.55,49.66,58.53,17.41,116.76,35.57,174.83,54.01,58.07,18.44,115.99,37.16,173.88,55.81,115.76,37.31,231.42,74.29,347.74,108.49,116.3,34.22,233.28,65.65,351.25,92.31,117.95,26.68,236.88,48.56,356.59,64.19,119.69,15.66,240.14,25.04,360.72,27.51,60.31,1.15,120.55.54,180.91-1.83l22.64-.87,11.32-.44c3.77-.16,7.55-.26,11.31-.5l45.24-2.54c7.54-.45,15.08-.79,22.61-1.32l22.6-1.66,22.6-1.66,11.3-.83c3.77-.28,7.53-.53,11.29-.89l45.14-4.06,11.28-1.01,5.64-.51,5.64-.6,22.54-2.38,22.54-2.38,11.27-1.19c3.76-.4,7.5-.89,11.26-1.33l45.02-5.42c7.51-.86,15-1.89,22.49-2.9l22.48-3.02,22.48-3.02c7.49-1.01,14.97-2.17,22.46-3.25l44.9-6.62,44.86-7.09c59.79-9.71,119.5-20.07,179.17-31.17,59.68-11.04,119.34-22.5,179.08-34.03,59.75-11.5,119.56-22.99,179.54-34.04,60-10.97,120.15-21.45,180.5-31.12,60.39-9.46,120.95-18.13,181.7-25.57,3.79-.51,7.6-.92,11.4-1.35l11.41-1.29,22.81-2.58,22.82-2.57,22.86-2.23,22.86-2.23,11.43-1.11c3.81-.38,7.62-.75,11.44-1.04l45.79-3.7c15.26-1.35,30.55-2.18,45.84-3.18l22.93-1.46,11.46-.73c3.82-.26,7.65-.37,11.47-.57l45.91-2.1,11.48-.52c3.83-.19,7.66-.23,11.48-.35l22.97-.63c61.25-2.03,122.54-1.66,183.8-.86l-1.11,55.01Z"/>
    <path class="cls-4" d="M5045.05,1572.1c-59.51-.77-119.03-1.14-178.49.84l-22.3.61c-3.72.12-7.44.16-11.15.34l-11.14.51-44.58,2.04c-3.71.19-7.43.29-11.14.55l-11.14.71-22.27,1.42c-14.85.97-29.7,1.77-44.54,3.09l-44.52,3.6c-3.71.27-7.42.64-11.12,1.01l-11.12,1.08-22.24,2.17-22.24,2.16-22.23,2.5-22.23,2.51-11.12,1.25c-3.7.42-7.41.82-11.11,1.31-59.26,7.26-118.48,15.74-177.71,25.02-59.24,9.49-118.5,19.81-177.87,30.66-59.38,10.94-118.89,22.36-178.59,33.86-59.71,11.52-119.7,23.04-179.92,34.18-60.21,11.2-120.83,21.72-181.65,31.59l-45.69,7.22-45.83,6.76c-7.64,1.1-15.27,2.28-22.93,3.32l-22.99,3.09-22.99,3.09c-7.66,1.03-15.32,2.08-23.02,2.97l-46.12,5.56c-3.85.45-7.68.95-11.53,1.36l-11.56,1.22-23.12,2.44-23.12,2.44-5.78.61-5.79.53-11.59,1.04-46.35,4.17c-3.86.37-7.73.63-11.6.92l-11.61.85-23.22,1.71-23.22,1.7c-7.74.54-15.5.9-23.25,1.36l-46.5,2.61c-3.87.25-7.75.35-11.63.51l-11.64.45-23.27.9-23.27.89-5.82.22-5.85.13-11.71.25-23.41.5-11.71.25-11.71.07-23.41.11-11.71.05c-3.9.02-7.8.04-11.71-.02l-46.82-.55c-124.82-2.54-249.38-12.27-372.83-28.42-123.46-16.12-245.79-38.64-366.58-65.97-120.81-27.3-240.1-59.38-358.02-94.07-117.94-34.68-234.55-71.97-350.45-109.32-57.95-18.67-115.72-37.35-173.42-55.67-57.7-18.32-115.32-36.28-172.95-53.43-57.64-17.16-115.29-33.53-173.03-48.68l-10.82-2.86-10.83-2.76-21.66-5.5c-7.22-1.87-14.45-3.56-21.68-5.34l-21.68-5.27-21.7-5.03-10.85-2.51c-3.62-.85-7.23-1.67-10.85-2.45l-21.71-4.76-10.86-2.38-10.87-2.24c-57.94-12.08-116-22.41-174.11-30.48-58.12-7.96-116.29-13.56-174.39-16.44l-10.89-.58-10.89-.35-21.77-.7c-3.63-.15-7.25-.16-10.88-.2l-10.87-.12-10.87-.12c-3.62-.01-7.25-.15-10.87-.04l-43.49.64c-3.63,0-7.24.22-10.86.37l-10.86.49-21.71.96c-57.85,3.16-115.48,9.29-172.55,18.54-57.08,9.25-113.6,21.62-169.24,37.07-3.48.97-6.99,1.83-10.44,2.88l-10.37,3.09-20.75,6.18c-3.47.99-6.88,2.17-10.32,3.27l-10.29,3.34-10.3,3.34c-3.43,1.13-6.88,2.18-10.27,3.41l-20.42,7.17-10.21,3.58-10.12,3.82-20.25,7.62c-6.72,2.62-13.39,5.37-20.08,8.04l-10.04,4.03c-3.35,1.33-6.64,2.81-9.96,4.21l-19.89,8.5c-6.6,2.91-13.14,5.93-19.72,8.88l-9.85,4.46-9.76,4.65-9.76,4.65c-3.25,1.55-6.52,3.07-9.73,4.71l-19.34,9.66c-12.8,6.62-25.61,13.23-38.22,20.2-25.3,13.81-50.16,28.35-74.72,43.64-12.3,7.62-24.48,15.49-36.88,23.58l-19.09,12.53-5.23,3.39-2.62,1.7c-.41.27-.89.57-1.44.92l-1.58.99-6.34,3.93c-3.37,1.96-6.81,3.87-10.27,5.7l-24.73-49.15c2.26-1.23,4.51-2.49,6.74-3.76l5.34-3.32c1.83-1.13,3.44-2.18,5.08-3.25l4.93-3.2,19.08-12.52c12.62-8.24,25.2-16.37,37.92-24.25,25.4-15.82,51.2-30.9,77.43-45.22,13.08-7.23,26.36-14.08,39.63-20.94l20.05-10.02c3.33-1.7,6.72-3.27,10.09-4.88l10.12-4.82,10.12-4.82,10.21-4.62c6.82-3.06,13.6-6.19,20.44-9.2l20.61-8.81c3.44-1.45,6.85-2.98,10.33-4.36l10.4-4.18c6.94-2.77,13.85-5.61,20.81-8.33l20.98-7.9,10.49-3.95,10.58-3.71,21.16-7.42c3.51-1.28,7.09-2.37,10.64-3.54l10.66-3.46,10.66-3.46c3.56-1.14,7.09-2.36,10.69-3.38l21.49-6.4,10.75-3.2c3.58-1.09,7.21-1.98,10.81-2.99,57.62-16,116.14-28.81,175.19-38.38,59.06-9.58,118.64-15.92,178.42-19.18l22.43-.99,11.21-.5c3.74-.16,7.48-.38,11.22-.38l44.91-.67c3.74-.1,7.49.03,11.23.05l11.23.12,11.23.12c3.74.04,7.49.05,11.23.21l22.46.73,11.23.36,11.23.59c59.87,2.96,119.67,8.73,179.22,16.89,59.54,8.27,118.84,18.82,177.86,31.12l11.07,2.28,11.05,2.42,22.09,4.84c3.69.79,7.36,1.63,11.03,2.49l11.02,2.55,22.05,5.11,22,5.35c7.33,1.8,14.68,3.52,21.99,5.42l21.96,5.58,10.98,2.8,10.96,2.89c58.47,15.34,116.71,31.88,174.79,49.17,58.08,17.28,116.01,35.34,173.89,53.72,57.89,18.38,115.73,37.08,173.65,55.74,115.83,37.33,231.96,74.47,349.09,108.91,117.12,34.45,235.25,66.21,354.64,93.19,119.37,27,240,49.2,361.59,65.08,121.57,15.9,244.07,25.46,366.77,27.96,61.33,1.17,122.8.55,184.01-1.86l22.95-.88,11.48-.44c3.83-.16,7.65-.26,11.47-.51l45.87-2.58c7.64-.45,15.29-.81,22.93-1.34l22.91-1.68,22.91-1.68,11.45-.84c3.82-.29,7.64-.54,11.45-.91l45.74-4.11,11.44-1.03,5.72-.52,5.71-.6,22.83-2.41,22.83-2.41,11.42-1.21c3.8-.4,7.6-.9,11.4-1.35l45.57-5.49c7.6-.87,15.18-1.91,22.76-2.93l22.74-3.05,22.74-3.05c7.58-1.03,15.13-2.2,22.69-3.29l45.37-6.69,45.27-7.16c60.3-9.79,120.47-20.23,180.41-31.38,59.95-11.09,119.78-22.58,179.5-34.11,59.72-11.5,119.39-22.96,179.06-33.95,59.68-10.91,119.39-21.31,179.18-30.89,59.81-9.37,119.7-17.94,179.71-25.29,3.75-.5,7.5-.91,11.25-1.33l11.26-1.27,22.52-2.54,22.52-2.53,22.55-2.19,22.55-2.2,11.28-1.1c3.76-.37,7.52-.74,11.28-1.02l45.16-3.65c15.04-1.33,30.12-2.15,45.19-3.14l22.6-1.44,11.3-.72c3.77-.26,7.54-.37,11.31-.56l45.24-2.07,11.31-.52c3.77-.19,7.54-.23,11.32-.35l22.64-.62c60.36-2,120.76-1.63,181.15-.85l-1.11,55.01Z"/>
  </g>
</svg>